<?xml version="1.0" standalone="no"?>
<!DOCTYPE svg PUBLIC "-//W3C//DTD SVG 20010904//EN"
 "http://www.w3.org/TR/2001/REC-SVG-20010904/DTD/svg10.dtd">
<svg version="1.0" xmlns="http://www.w3.org/2000/svg"
 width="750.000000pt" height="422.000000pt" viewBox="0 0 750.000000 422.000000"
 preserveAspectRatio="xMidYMid meet">

<g transform="translate(0.000000,422.000000) scale(0.100000,-0.100000)"
fill="#000000" stroke="none">
<path d="M0 2110 l0 -2110 3750 0 3750 0 0 2110 0 2110 -1730 0 c-1533 0
-1729 -2 -1724 -15 4 -10 0 -15 -15 -15 -12 0 -21 6 -21 15 0 10 -10 15 -29
15 -23 0 -31 -6 -39 -29 -6 -16 -22 -37 -36 -46 -25 -17 -28 -16 -101 19 -40
20 -77 41 -80 46 -4 7 -565 10 -1645 10 l-1640 0 3 -22 c3 -34 -37 -36 -66 -4
l-24 26 -177 0 -176 0 0 -2110z m3498 2058 c20 -20 14 -38 -13 -38 -20 0 -25
5 -25 25 0 27 18 33 38 13z m-3133 -38 c3 -5 -1 -10 -9 -10 -9 0 -16 5 -16 10
0 6 4 10 9 10 6 0 13 -4 16 -10z m2175 -55 c7 -9 10 -18 7 -21 -10 -11 -37 5
-37 21 0 19 14 19 30 0z m-2278 -212 c27 -24 23 -43 -10 -43 -32 0 -52 16 -52
42 0 23 37 24 62 1z m293 -13 c-5 -8 -11 -8 -17 -2 -6 6 -7 16 -3 22 5 8 11 8
17 2 6 -6 7 -16 3 -22z m140 -58 c-3 -3 -11 0 -18 7 -9 10 -8 11 6 5 10 -3 15
-9 12 -12z m424 -76 c43 -78 46 -86 32 -86 -10 0 -91 142 -91 160 0 22 20 -2
59 -74z m221 60 c10 -20 18 -23 44 -19 36 6 82 -24 96 -63 16 -40 3 -53 -49
-52 l-47 1 -41 79 c-26 48 -37 78 -29 78 7 0 18 -11 26 -24z m-626 -23 c14
-15 23 -30 20 -35 -3 -5 6 -28 20 -53 14 -24 22 -46 17 -49 -5 -4 -20 13 -33
35 -28 51 -42 54 -46 12 -2 -18 -9 -33 -16 -33 -6 0 -32 20 -56 45 -24 24 -45
43 -47 41 -2 -2 8 -25 22 -51 29 -56 29 -55 12 -55 -14 0 -92 149 -82 158 9 9
55 -20 96 -61 37 -37 39 -38 40 -16 1 28 5 71 7 82 3 14 22 7 46 -20z m270 2
c3 -8 15 -15 26 -15 23 0 27 -17 5 -22 -23 -5 19 -68 45 -68 21 0 27 -15 10
-25 -17 -11 -59 23 -77 60 -9 19 -22 35 -29 35 -6 0 -11 11 -10 25 1 27 20 34
30 10z m2274 -14 c3 -8 -1 -12 -9 -9 -7 2 -15 10 -17 17 -3 8 1 12 9 9 7 -2
15 -10 17 -17z m-1997 -1 c17 -10 59 -78 59 -97 0 -14 -86 -9 -103 6 -25 20
-22 51 6 52 12 1 26 1 30 0 5 -1 7 4 5 11 -3 7 -20 13 -38 14 -19 0 -35 5 -38
12 -5 15 51 16 79 2z m-370 -13 c13 -10 59 -87 59 -99 0 -2 -22 -5 -49 -6 -37
-1 -52 3 -66 18 -24 27 -13 50 25 50 16 0 30 4 30 10 0 12 -45 24 -65 17 -15
-7 -29 6 -18 17 11 10 67 6 84 -7z m-333 -93 c26 -18 29 -39 7 -48 -29 -11
-74 31 -59 55 8 13 27 11 52 -7z m1730 -75 c29 -51 50 -95 46 -98 -8 -8 -27
19 -74 106 -42 76 -45 83 -32 83 4 0 31 -41 60 -91z m-457 51 c32 -18 21 -28
-22 -23 -36 5 -41 4 -38 -12 3 -12 23 -24 59 -36 54 -17 90 -48 90 -75 0 -35
-82 -42 -126 -10 -28 21 -14 27 29 14 28 -9 40 -9 49 0 18 18 -7 39 -54 47
-23 4 -52 18 -65 31 -25 25 -30 59 -10 67 22 9 68 7 88 -3z m-967 -22 c14 -19
14 -24 2 -37 -13 -12 -18 -12 -40 3 -14 9 -26 25 -26 36 0 28 44 27 64 -2z
m1573 -10 c24 -26 55 -84 51 -95 -2 -4 -20 -9 -40 -10 -66 -7 -110 68 -45 75
41 5 27 27 -17 26 -24 -1 -36 3 -36 12 0 24 64 17 87 -8z m-260 -3 c19 -13 77
-104 71 -110 -2 -2 -21 -6 -43 -9 -73 -11 -122 56 -56 78 29 10 31 13 17 25
-9 8 -26 10 -46 6 -28 -6 -39 3 -23 18 12 12 58 7 80 -8z m-148 -9 c10 -12 6
-14 -21 -13 -42 2 -49 -25 -16 -60 19 -21 29 -24 61 -19 39 7 50 -6 19 -23
-45 -24 -132 32 -132 86 0 16 3 33 7 36 12 12 70 7 82 -7z m1891 -165 c13 -26
13 -31 -5 -31 -12 0 -35 28 -35 44 0 14 30 4 40 -13z m-630 -6 c11 -13 8 -15
-13 -15 -14 0 -28 -4 -31 -9 -8 -13 25 -38 61 -46 28 -6 83 -54 83 -73 -1 -37
-76 -50 -107 -19 -22 22 -12 30 21 17 31 -11 46 -6 46 15 0 21 -38 38 -84 38
-23 -1 -47 4 -53 9 -16 13 -17 70 -1 86 17 17 63 15 78 -3z m495 -23 c-6 -31
25 -82 50 -82 24 0 27 33 5 62 -21 29 -21 29 -1 16 24 -15 51 -66 44 -84 -2
-6 -13 -14 -24 -17 -11 -3 -19 -14 -19 -26 0 -31 -19 -26 -38 11 -9 18 -29 44
-43 58 -48 48 -45 90 8 90 22 0 24 -3 18 -28z m-331 2 c23 -9 20 -24 -4 -24
-15 0 -20 -7 -20 -25 0 -37 35 -67 73 -63 23 2 32 -1 32 -12 0 -27 -49 -23
-84 6 -27 22 -61 72 -61 88 0 8 31 36 40 36 5 0 15 -3 24 -6z m136 -24 c0 -17
7 -45 16 -61 27 -53 8 -43 -31 15 -37 57 -39 76 -4 76 15 0 19 -7 19 -30z
m-966 -11 c-3 -5 -14 -9 -25 -9 -19 0 -16 -8 26 -86 43 -79 51 -105 27 -90 -5
3 -31 44 -58 90 -44 77 -52 85 -82 88 -55 5 -36 23 30 28 62 5 93 -3 82 -21z
m1076 -16 c29 -45 33 -62 11 -49 -15 10 -61 96 -50 96 5 0 23 -21 39 -47z
m-550 12 c25 -13 50 -42 50 -58 0 -3 -16 -8 -35 -11 -39 -8 -45 -20 -15 -36
14 -7 26 -8 39 0 13 7 22 7 26 0 19 -30 -36 -40 -84 -15 -37 19 -74 91 -60
117 12 22 40 23 79 3z m-182 -9 c35 -18 68 -54 81 -88 14 -37 -10 -62 -51 -54
l-28 6 15 -30 c18 -36 19 -40 2 -40 -7 0 -23 18 -34 39 -12 22 -38 70 -59 107
-31 55 -34 65 -18 60 10 -3 26 -1 34 4 20 13 26 12 58 -4z m-144 -91 c10 -44
19 -87 21 -95 8 -26 -11 -43 -39 -36 -31 8 -34 22 -6 29 11 3 20 9 20 14 0 4
-32 43 -71 86 -80 87 -86 122 -7 39 28 -29 52 -51 55 -49 2 2 -1 24 -6 48 -10
43 -5 68 9 52 4 -4 15 -44 24 -88z m-1354 3 l25 -20 -29 17 c-16 10 -44 26
-63 37 -18 11 -33 22 -33 25 0 7 71 -35 100 -59z m640 -34 c28 -53 49 -98 46
-102 -10 -10 -31 19 -81 111 -34 63 -42 87 -32 87 9 0 37 -41 67 -96z m-427
22 c28 -26 43 -66 33 -91 -3 -8 -24 -18 -46 -21 -40 -7 -40 -7 -25 -30 19 -29
19 -34 1 -34 -8 0 -32 31 -53 70 -21 38 -43 70 -50 70 -6 0 -15 4 -18 10 -4 6
1 7 12 3 17 -7 17 -6 0 20 l-17 27 68 0 c59 0 73 -3 95 -24z m-243 -12 c0 -2
-9 0 -20 6 -11 6 -20 13 -20 16 0 2 9 0 20 -6 11 -6 20 -13 20 -16z m569 -12
c-11 -18 -10 -28 9 -67 35 -72 0 -57 -42 19 -41 73 -42 76 -21 76 8 0 15 -5
15 -11 0 -6 7 -3 16 6 23 22 40 4 23 -23z m-124 -13 c41 -36 44 -49 13 -49
-13 0 -33 -3 -46 -6 -18 -5 -20 -9 -11 -20 14 -16 51 -18 65 -4 8 8 15 6 23
-4 11 -13 9 -17 -12 -27 -34 -15 -73 -4 -108 30 -81 82 -11 156 76 80z m-960
-88 c49 -50 83 -91 75 -91 -7 0 -24 10 -37 21 -20 20 -28 21 -75 13 -44 -7
-54 -13 -56 -31 -5 -34 -29 -28 -36 8 -8 41 -8 174 0 182 11 11 37 -9 129
-102z m2783 86 c2 -10 -3 -17 -12 -17 -9 0 -16 2 -16 4 0 2 -3 12 -6 21 -5 13
-2 16 12 13 10 -2 20 -11 22 -21z m-3115 -6 c26 -1 70 -49 63 -68 -4 -11 5
-27 29 -48 19 -18 35 -40 35 -49 0 -29 -44 -47 -107 -44 l-58 3 -47 95 c-26
52 -48 98 -48 102 0 8 54 15 90 12 14 -2 33 -3 43 -3z m-218 -22 c4 -6 10 -55
12 -110 5 -92 4 -99 -13 -99 -18 0 -204 176 -204 192 0 22 33 1 95 -62 38 -38
75 -70 82 -70 9 0 11 20 6 80 -4 55 -3 80 5 80 6 0 14 -5 17 -11z m3704 -2
c42 -21 38 -38 -6 -31 -39 6 -62 -8 -76 -47 -9 -25 26 -91 70 -130 51 -46 94
-57 129 -34 30 20 54 13 54 -14 0 -25 -36 -51 -70 -51 -70 0 -190 112 -224
208 -16 44 -13 65 12 95 18 20 75 23 111 4z m-2715 -26 c-2 -3 -12 3 -22 13
-16 17 -16 18 5 5 12 -7 20 -15 17 -18z m3165 -52 c56 -20 29 -67 -30 -52 -39
10 -46 25 -24 47 19 19 15 19 54 5z m-3155 -38 c-2 -3 -12 3 -22 13 -16 17
-16 18 5 5 12 -7 20 -15 17 -18z m3000 -2 c12 -11 -23 -51 -37 -42 -5 3 -23 6
-39 5 -36 -1 -49 25 -22 45 20 15 80 10 98 -8z m-3014 -25 c0 -2 -9 0 -20 6
-11 6 -20 13 -20 16 0 2 9 0 20 -6 11 -6 20 -13 20 -16z m155 -12 c-3 -3 -11
0 -18 7 -9 10 -8 11 6 5 10 -3 15 -9 12 -12z m-120 -10 c-3 -3 -11 0 -18 7 -9
10 -8 11 6 5 10 -3 15 -9 12 -12z m753 -235 l97 -179 55 6 c30 3 69 8 86 12
26 5 32 2 44 -23 8 -15 16 -31 17 -34 4 -6 -226 -44 -230 -38 -2 2 -45 83 -97
179 -51 96 -104 192 -116 212 -21 33 -22 37 -6 41 45 13 53 3 150 -176z m6
154 c19 -20 14 -41 -8 -41 -18 0 -49 37 -41 49 10 17 30 13 49 -8z m-379 -46
c84 -37 147 -94 182 -166 45 -90 47 -145 8 -204 -15 -20 -25 -38 -23 -40 36
-30 85 -31 114 -4 21 20 23 20 48 4 33 -22 33 -31 -3 -64 -28 -26 -28 -28 -10
-39 23 -15 25 -48 3 -56 -22 -9 -64 20 -64 43 0 13 -9 21 -29 26 -16 3 -55 22
-87 41 -32 19 -63 33 -69 30 -20 -7 -107 13 -154 36 -60 29 -152 116 -179 171
-45 90 -38 160 20 214 50 46 150 50 243 8z m733 13 c18 -18 14 -38 -7 -38 -17
0 -31 18 -31 41 0 13 24 11 38 -3z m2772 -8 c13 -9 13 -11 0 -20 -19 -13 -34
-8 -38 13 -4 19 15 22 38 7z m-161 -19 c12 -8 12 -12 2 -25 -24 -29 -60 -13
-47 19 6 17 24 19 45 6z m-436 -7 c3 -4 -10 -18 -30 -31 -35 -24 -38 -24 -50
-7 -9 13 -10 21 -2 31 12 13 70 18 82 7z m-3425 -25 c22 -8 31 -18 34 -40 l5
-29 -51 4 c-28 2 -59 6 -68 11 -24 10 -91 -14 -84 -30 3 -8 1 -15 -5 -17 -5
-2 -2 -13 6 -25 17 -25 104 -57 129 -47 9 3 22 2 29 -4 6 -5 28 -13 47 -17 90
-19 148 -73 157 -146 3 -23 12 -43 19 -46 22 -8 16 -26 -6 -20 -11 3 -23 -1
-28 -8 -30 -52 -180 -65 -268 -24 -47 23 -62 44 -50 74 4 12 15 11 62 -5 31
-11 73 -20 93 -20 123 1 118 105 -6 130 -30 7 -57 10 -60 7 -7 -8 -125 34
-155 55 -36 25 -68 79 -68 116 0 39 34 78 80 91 39 12 142 6 188 -10z m3613
-33 c-10 -12 -8 -17 9 -26 17 -9 25 -8 39 4 10 9 22 12 30 6 11 -6 7 -15 -18
-41 -26 -26 -37 -30 -50 -22 -9 5 -18 21 -19 34 -2 13 -9 30 -14 37 -14 16 10
48 25 33 7 -7 6 -15 -2 -25z m-1027 -20 c13 -21 21 -24 49 -19 28 4 38 0 65
-28 58 -59 53 -105 -11 -107 -31 -1 -36 3 -72 66 -21 37 -45 77 -53 90 -8 12
-10 22 -4 22 5 0 17 -11 26 -24z m1856 5 c0 -10 -7 -22 -15 -25 -9 -3 -23 -22
-31 -41 -15 -38 -28 -44 -38 -19 -20 52 7 104 56 104 21 0 28 -5 28 -19z
m-895 -45 c23 -40 24 -46 13 -82 -11 -33 -18 -39 -44 -42 -34 -3 -64 18 -64
45 0 10 6 13 16 9 26 -10 54 3 65 31 7 20 5 33 -11 60 -11 19 -16 31 -10 28 5
-3 21 -25 35 -49z m-1199 -10 c22 -22 34 -43 34 -62 0 -17 11 -39 27 -56 35
-37 24 -46 -16 -13 -17 15 -39 25 -48 23 -19 -4 -20 -10 -7 -42 5 -13 3 -17
-6 -14 -12 4 -109 163 -110 180 0 8 26 15 64 17 20 1 38 -9 62 -33z m416 17
c30 -36 30 -47 0 -19 -18 17 -32 31 -32 33 0 9 19 1 32 -14z m1201 11 c3 -4
-1 -17 -10 -31 -20 -31 -57 -28 -61 5 -3 20 0 23 16 18 11 -4 23 -2 27 4 7 11
19 13 28 4z m-1409 -73 c38 -63 45 -84 22 -75 -8 3 -17 1 -21 -5 -10 -17 -50
-13 -67 7 -24 28 -71 112 -65 118 3 3 24 -20 46 -50 23 -31 48 -56 56 -56 21
0 19 39 -5 78 -23 37 -24 42 -11 42 5 0 26 -26 45 -59z m285 1 c17 -41 18 -84
2 -90 -10 -3 -12 2 -8 20 5 18 1 34 -13 51 -23 29 -26 47 -6 47 7 0 19 -13 25
-28z m881 8 c0 -12 -28 -25 -36 -17 -9 9 6 27 22 27 8 0 14 -5 14 -10z m-1644
-186 c-6 -16 -8 -16 -26 1 -16 14 -17 21 -8 32 10 12 13 12 26 -1 8 -8 12 -22
8 -32z m-2018 25 c-2 -6 -8 -10 -13 -10 -5 0 -11 4 -13 10 -2 6 4 11 13 11 9
0 15 -5 13 -11z m4579 -16 c9 -23 -33 -55 -61 -47 -12 3 -29 14 -39 22 -17 15
-16 17 25 28 61 16 68 16 75 -3z m-1904 -17 c49 -21 98 -79 177 -211 40 -66
82 -133 92 -148 11 -15 17 -34 14 -42 -6 -17 -52 -20 -61 -5 -10 16 -23 12
-30 -9 -3 -11 -25 -27 -50 -36 -56 -22 -101 -9 -163 48 -76 71 -104 155 -64
195 10 10 43 26 73 36 30 9 60 19 67 21 18 7 -13 52 -49 71 -44 22 -85 18
-121 -15 l-32 -29 -28 21 c-35 26 -35 46 0 79 41 39 116 50 175 24z m606 -41
l0 -20 -9 20 c-5 11 -9 27 -9 35 -1 13 0 13 9 0 5 -8 9 -24 9 -35z m296 35 c3
-5 1 -10 -4 -10 -6 0 -11 5 -11 10 0 6 2 10 4 10 3 0 8 -4 11 -10z m-355 -32
c0 -6 -7 -5 -15 2 -8 7 -15 17 -15 22 0 6 7 5 15 -2 8 -7 15 -17 15 -22z m153
12 c9 -33 7 -35 -21 -32 -34 5 -32 3 -25 30 7 28 39 29 46 2z m-1045 -27 c5
-10 21 -63 36 -118 15 -55 43 -154 62 -220 19 -66 34 -126 34 -132 0 -7 -17
-17 -37 -22 -34 -10 -40 -8 -59 12 -11 12 -90 96 -174 187 -85 91 -169 182
-189 202 -19 21 -33 39 -30 41 2 2 20 7 40 10 36 5 37 4 189 -164 84 -93 155
-167 157 -165 3 2 -18 80 -46 174 -28 93 -51 176 -51 185 0 8 10 18 23 20 12
2 25 5 29 6 4 0 11 -7 16 -16z m742 1 c0 -8 -4 -12 -10 -9 -5 3 -10 10 -10 16
0 5 5 9 10 9 6 0 10 -7 10 -16z m190 -4 c0 -5 -4 -10 -10 -10 -5 0 -10 5 -10
10 0 6 5 10 10 10 6 0 10 -4 10 -10z m-2347 -15 c9 -8 17 -20 19 -27 3 -9 37
-7 142 11 76 12 139 21 140 19 2 -2 38 -66 81 -143 43 -77 83 -143 89 -147 6
-4 8 -8 3 -8 -17 0 25 -48 58 -66 19 -10 35 -22 35 -27 0 -4 -11 0 -25 9 -14
9 -27 15 -29 13 -8 -11 81 -144 97 -145 14 -2 15 1 7 11 -8 10 -8 13 2 11 24
-5 53 -19 77 -38 36 -28 56 -24 35 7 -9 13 -14 30 -11 37 2 7 0 21 -5 31 -13
25 -1 21 26 -8 l24 -26 -15 42 c-29 86 4 129 122 159 43 11 80 22 82 24 2 2
-10 20 -27 40 -57 64 -143 66 -195 4 l-26 -31 -32 29 c-18 16 -36 32 -40 35
-5 4 6 23 23 43 63 71 183 83 272 27 59 -37 77 -63 192 -264 91 -161 94 -168
73 -176 -60 -22 -63 -22 -76 6 l-12 27 -12 -24 c-17 -33 -74 -70 -109 -70 -17
0 -27 -4 -23 -10 3 -5 -1 -10 -10 -10 -8 0 -18 -6 -21 -14 -4 -9 -15 -13 -32
-10 l-27 5 30 -25 c19 -15 38 -23 51 -20 23 6 40 -10 46 -41 5 -29 -44 -28
-57 2 -9 22 -87 71 -124 78 -17 3 -17 0 6 -41 23 -41 28 -45 54 -39 16 4 29 2
29 -3 0 -5 -31 -14 -69 -21 -77 -12 -137 -42 -146 -72 -4 -10 -9 -19 -13 -19
-4 0 -18 -10 -32 -21 l-25 -21 27 16 c83 49 202 -17 244 -137 24 -69 2 -117
-63 -136 -63 -18 -160 46 -198 130 -10 21 -21 36 -26 34 -10 -7 -15 2 -24 44
-7 31 -5 33 14 28 11 -3 24 0 28 6 3 7 3 9 -1 5 -4 -3 -22 -2 -39 4 -18 5 -79
11 -137 13 -71 2 -115 8 -135 19 -61 32 -65 22 -24 -58 l39 -74 29 29 c69 68
144 22 227 -139 40 -77 46 -95 34 -102 -8 -6 -19 -8 -25 -7 -5 2 -32 43 -60
92 -28 49 -61 95 -73 103 -30 20 -70 8 -83 -26 -9 -23 -4 -39 35 -117 43 -88
45 -104 10 -105 -11 0 -224 373 -224 392 0 5 10 13 23 18 20 8 21 9 2 10 l-20
1 20 10 c14 6 -4 7 -55 5 l-75 -5 50 14 c28 7 45 14 38 14 -18 1 -4 29 19 37
11 3 17 8 14 11 -2 3 -21 0 -40 -7 -57 -18 -66 -6 -10 14 48 18 50 20 46 52
-4 36 21 89 38 79 5 -3 10 9 12 27 3 34 13 38 52 22 14 -5 17 -4 12 4 -5 8 2
12 20 12 42 0 64 25 57 66 -5 30 -3 34 16 34 30 0 26 16 -11 51 -20 18 -25 27
-14 23 16 -6 15 0 -9 42 -15 27 -48 87 -72 134 -25 47 -48 88 -52 93 -4 4 -29
3 -57 -3 -27 -6 -58 -12 -69 -14 -11 -2 -34 -6 -52 -10 -31 -7 -33 -5 -58 43
-14 28 -30 51 -35 51 -14 0 -43 48 -35 60 9 14 31 12 48 -5z m2927 -80 c0 -8
-7 -15 -15 -15 -16 0 -20 12 -8 23 11 12 23 8 23 -8z m-3613 -41 c-9 -9 -28 6
-21 18 4 6 10 6 17 -1 6 -6 8 -13 4 -17z m-109 -13 c3 -8 -1 -12 -9 -9 -7 2
-15 10 -17 17 -3 8 1 12 9 9 7 -2 15 -10 17 -17z m3807 -22 c4 -6 -3 -21 -16
-35 -17 -18 -25 -21 -36 -13 -20 17 -16 39 10 49 30 12 35 12 42 -1z m163 -21
c-7 -19 -38 -22 -38 -4 0 10 9 16 21 16 12 0 19 -5 17 -12z m-3990 -25 c6 -19
-25 -16 -32 3 -4 11 -1 14 11 12 9 -2 18 -9 21 -15z m1322 -70 c0 -7 -39 17
-46 28 -3 6 5 3 20 -6 14 -10 26 -19 26 -22z m70 1 c0 -2 -9 0 -20 6 -11 6
-20 13 -20 16 0 2 9 0 20 -6 11 -6 20 -13 20 -16z m-305 -19 c22 -14 36 -25
30 -25 -5 1 -28 12 -50 25 -22 14 -35 25 -30 25 6 -1 28 -12 50 -25z m-16 -30
c43 -25 84 -45 91 -45 10 0 11 -3 4 -10 -8 -8 -36 5 -95 41 -90 55 -96 59 -85
59 4 0 42 -20 85 -45z m-1 -44 c62 -35 110 -66 108 -69 -5 -4 -174 92 -221
126 -34 25 -4 9 113 -57z m320 18 c25 -16 43 -29 39 -29 -13 0 -81 38 -107 60
-25 21 -25 21 -1 10 13 -7 44 -25 69 -41z m2088 15 c61 -29 123 -136 110 -189
-4 -14 -20 -32 -39 -41 -46 -24 -48 -33 -21 -80 17 -29 21 -44 14 -49 -7 -4
-15 -3 -19 1 -14 17 -97 149 -109 174 -7 14 -33 53 -58 85 -24 33 -43 67 -42
75 2 8 23 20 48 27 62 16 77 15 116 -3z m-2010 -25 c4 -8 1 -8 -14 0 -12 6
-24 16 -28 22 -4 8 -1 8 14 0 12 -6 24 -16 28 -22z m-409 -44 c40 -22 73 -44
73 -48 0 -5 -3 -6 -7 -4 -57 31 -153 90 -153 94 0 6 3 5 87 -42z m2148 18 c8
-10 39 -56 68 -103 42 -68 57 -84 74 -82 28 4 40 -16 19 -31 -15 -11 -14 -15
4 -47 41 -71 44 -80 32 -92 -8 -8 -23 8 -57 60 -25 39 -49 73 -53 76 -12 7
-115 -29 -120 -42 -2 -7 13 -38 32 -71 41 -67 44 -81 16 -81 -11 0 -20 4 -20
8 0 4 -25 47 -55 95 -30 47 -55 89 -55 91 0 3 -21 39 -46 81 -27 45 -43 82
-40 91 9 23 26 6 72 -72 21 -37 45 -69 52 -71 13 -5 99 23 115 37 12 10 -17
63 -59 110 -35 38 -38 60 -8 60 8 0 21 -8 29 -17z m-2162 -52 c15 -8 27 -18
27 -23 0 -10 -25 2 -55 27 -22 18 -15 17 28 -4z m-932 -4 c-1 -12 -15 -9 -19
4 -3 6 1 10 8 8 6 -3 11 -8 11 -12z m2284 -37 c3 -5 1 -10 -4 -10 -6 0 -11 5
-11 10 0 6 2 10 4 10 3 0 8 -4 11 -10z m495 -15 c38 -19 98 -95 110 -136 18
-62 13 -88 -22 -109 -18 -11 -41 -20 -50 -20 -30 0 -30 -19 2 -74 l31 -54 -23
-8 c-12 -3 -24 -3 -25 2 -2 5 -18 32 -35 59 -18 28 -55 91 -84 140 -28 50 -63
111 -78 137 l-27 47 48 15 c63 19 117 20 153 1z m-1370 -15 c6 -11 8 -20 6
-20 -3 0 -10 9 -16 20 -6 11 -8 20 -6 20 3 0 10 -9 16 -20z m2984 -77 c-23
-17 -34 -17 -34 1 0 17 19 25 39 18 11 -4 10 -8 -5 -19z m-3986 -42 c3 -8 -1
-12 -9 -9 -7 2 -15 10 -17 17 -3 8 1 12 9 9 7 -2 15 -10 17 -17z m3817 -21
c-5 -8 -11 -8 -17 -2 -6 6 -7 16 -3 22 5 8 11 8 17 2 6 -6 7 -16 3 -22z
m-2530 10 c3 -5 1 -10 -4 -10 -6 0 -11 5 -11 10 0 6 2 10 4 10 3 0 8 -4 11
-10z m2275 -8 c0 -4 -9 -15 -20 -25 -28 -23 -15 -45 34 -58 41 -12 106 -70
106 -95 0 -8 -11 -21 -24 -29 -19 -13 -29 -14 -45 -5 -28 15 -26 30 3 30 27 0
42 26 25 46 -6 8 -29 19 -50 24 -61 17 -111 85 -82 113 9 10 53 9 53 -1z m150
-22 c0 -12 -28 -25 -36 -17 -9 9 6 27 22 27 8 0 14 -5 14 -10z m346 -37 c-5
-12 -10 -13 -18 -5 -8 8 -8 15 3 28 15 18 25 4 15 -23z m-606 -43 c18 -11 13
-16 -27 -25 -34 -7 -42 2 -21 23 14 14 28 15 48 2z m-2092 -44 c39 -20 63 -50
116 -142 52 -91 54 -100 27 -107 -14 -3 -26 10 -55 64 -48 89 -82 129 -110
129 -58 0 -59 -46 -5 -146 29 -53 38 -79 31 -86 -20 -20 -37 -1 -100 111 -35
61 -67 113 -73 116 -17 11 -9 33 14 39 14 4 26 0 34 -10 10 -14 13 -13 23 6
10 19 40 38 63 39 4 1 20 -5 35 -13z m2147 -37 c-3 -4 -12 -6 -20 -3 -21 8
-38 -31 -20 -46 18 -15 45 -6 45 15 0 21 17 19 30 -4 8 -16 6 -23 -12 -35 -34
-24 -53 -19 -83 19 l-26 36 28 33 c28 34 28 34 45 14 10 -11 16 -24 13 -29z
m295 42 c0 -10 -30 -24 -37 -17 -3 3 -2 9 2 15 8 13 35 15 35 2z m-4912 -33
c20 -20 15 -58 -8 -58 -26 0 -61 35 -54 55 7 18 45 20 62 3z m4175 -92 c76
-124 77 -185 4 -157 -33 13 -37 42 -5 38 36 -3 32 25 -14 102 -40 66 -45 71
-75 69 -41 -3 -54 10 -29 28 42 30 59 19 119 -80z m236 55 c23 -28 37 -38 51
-34 23 6 50 -41 34 -57 -7 -7 -32 15 -73 60 -34 39 -58 70 -52 70 5 0 23 -18
40 -39z m-89 -1 c16 -17 40 -51 55 -77 l28 -46 -24 -18 c-43 -33 -77 -21 -108
39 -10 19 -8 26 15 47 25 23 26 27 12 41 -13 13 -20 14 -38 4 -29 -16 -47 1
-25 24 25 24 54 19 85 -14z m-4119 9 c30 -16 13 -28 -36 -27 -53 1 -87 -19
-105 -61 -15 -38 -8 -70 26 -111 52 -61 116 -74 173 -34 22 16 23 30 5 78 -12
31 24 17 45 -18 31 -49 27 -71 -16 -101 -66 -44 -151 -31 -228 36 -57 50 -78
116 -59 186 13 46 142 81 195 52z m332 -3 c72 -30 111 -124 76 -182 -22 -37
-45 -45 -94 -34 -92 21 -154 110 -125 179 20 48 80 64 143 37z m729 -3 c20
-18 24 -48 8 -58 -18 -11 -50 6 -56 30 -11 44 14 59 48 28z m648 -99 c0 -17
-22 -14 -28 4 -2 7 3 12 12 12 9 0 16 -7 16 -16z m395 -4 c3 -5 1 -10 -4 -10
-6 0 -11 5 -11 10 0 6 2 10 4 10 3 0 8 -4 11 -10z m-838 -56 c17 -34 19 -35
59 -29 33 5 43 3 48 -10 7 -20 0 -35 -17 -35 -39 -1 -39 -17 3 -99 43 -87 56
-99 88 -82 15 8 23 6 38 -10 18 -21 18 -21 -5 -40 -27 -22 -53 -24 -84 -7 -30
15 -40 30 -88 121 -28 51 -47 77 -59 77 -29 0 -46 28 -32 51 10 15 9 25 -3 49
-18 35 -13 50 16 50 12 0 25 -13 36 -36z m-103 -287 c16 -102 26 -197 22 -212
-9 -34 -66 -61 -97 -45 -26 14 -21 41 10 57 33 16 43 37 32 65 -5 13 -64 77
-130 143 -67 66 -121 123 -121 127 0 4 10 10 21 13 18 6 38 -10 114 -85 51
-51 95 -88 98 -84 3 5 -4 54 -14 109 -19 95 -19 100 -2 113 15 10 20 10 28 -1
5 -8 23 -98 39 -200z m3376 204 c0 -12 -20 -25 -27 -18 -7 7 6 27 18 27 5 0 9
-4 9 -9z m-3783 -49 c44 -31 87 -122 79 -165 -8 -43 -49 -82 -105 -98 -23 -7
-45 -19 -48 -26 -3 -8 2 -33 11 -56 22 -58 20 -67 -12 -67 -24 0 -32 7 -45 38
-10 20 -25 53 -36 72 -74 141 -133 269 -129 280 7 21 124 49 193 47 44 -2 70
-9 92 -25z m3858 -23 c8 -11 -22 -38 -42 -39 -19 0 -16 21 5 36 21 16 29 17
37 3z m117 -11 c-6 -6 -15 -8 -19 -4 -4 4 -1 11 7 16 19 12 27 3 12 -12z
m-2962 -88 c0 -5 -4 -10 -10 -10 -5 0 -10 5 -10 10 0 6 5 10 10 10 6 0 10 -4
10 -10z m1110 -34 c0 -8 3 -22 6 -30 5 -12 1 -16 -17 -14 -19 2 -25 -2 -26
-22 -2 -14 4 -34 12 -44 12 -16 19 -18 40 -8 21 10 26 8 39 -10 16 -23 13 -38
-9 -38 -31 0 -23 -26 39 -136 37 -63 64 -119 61 -125 -4 -5 -14 -9 -24 -9 -13
0 -38 35 -85 119 -53 94 -70 118 -84 114 -24 -6 -49 42 -26 51 12 5 11 11 -6
43 -24 46 -26 80 -3 105 20 22 83 25 83 4z m143 -21 c18 -38 24 -40 81 -24 35
10 42 9 53 -7 22 -30 16 -44 -19 -44 -62 0 -64 -10 -19 -93 50 -90 65 -105 91
-89 14 9 21 7 34 -7 20 -22 20 -35 1 -51 -22 -18 -63 -15 -86 6 -12 11 -45 60
-75 110 -35 60 -60 91 -70 90 -24 -2 -43 32 -25 43 12 8 10 15 -8 46 -23 39
-21 55 8 55 10 0 24 -15 34 -35z m1517 26 c0 -6 -4 -13 -10 -16 -5 -3 -10 1
-10 9 0 9 5 16 10 16 6 0 10 -4 10 -9z m-372 -90 l34 -62 39 6 c35 6 40 4 51
-20 11 -24 9 -28 -16 -49 l-29 -22 34 -68 c28 -57 37 -66 54 -61 11 3 26 7 34
8 18 2 51 -54 35 -60 -6 -2 -20 -10 -30 -18 -18 -13 -18 -16 14 -81 22 -43 30
-70 23 -77 -14 -14 -26 -3 -56 55 -15 29 -31 57 -35 61 -11 13 -80 -20 -80
-38 0 -8 13 -41 29 -73 36 -73 46 -113 30 -123 -9 -5 -25 19 -55 81 -23 48
-46 90 -52 94 -5 3 -23 -1 -38 -9 -33 -17 -48 -7 -59 37 -6 23 -2 29 24 43 17
8 31 18 31 21 0 8 -47 98 -62 117 -11 15 -17 16 -45 5 -37 -14 -48 -7 -58 34
-6 23 -2 29 24 43 l31 16 -35 68 c-28 56 -32 71 -21 80 16 14 24 5 60 -66 14
-28 30 -55 36 -58 16 -10 80 23 80 41 0 8 -11 37 -25 64 -50 99 -19 110 33 11z
m-1538 9 c21 -21 27 -55 10 -65 -27 -17 -73 46 -55 74 9 16 23 13 45 -9z
m-1837 -114 c6 -16 -2 -28 -14 -20 -12 7 -11 34 0 34 5 0 11 -6 14 -14z m1985
-148 c65 -117 81 -153 70 -159 -7 -5 -19 -8 -26 -6 -20 4 -182 301 -169 309
30 19 46 1 125 -144z m1017 111 c24 -11 31 -21 33 -52 3 -37 2 -38 -20 -31
-37 14 -123 11 -121 -3 2 -7 -3 -10 -11 -7 -21 8 -46 -47 -46 -100 0 -58 28
-132 74 -195 62 -85 173 -142 212 -110 9 7 26 18 38 24 12 6 27 29 35 53 l13
43 32 -20 c39 -25 45 -65 18 -118 -31 -60 -65 -85 -120 -91 -140 -13 -325 166
-376 363 -9 31 -21 64 -28 72 -8 10 -9 16 -1 21 6 4 14 24 18 46 8 40 55 102
89 117 29 12 125 6 161 -12z m-1185 -182 c36 -141 41 -170 29 -178 -29 -18
-46 -6 -129 91 -82 95 -110 119 -95 83 4 -10 19 -66 35 -126 27 -103 28 -108
10 -117 -32 -17 -46 -11 -87 38 -22 26 -80 90 -127 142 -85 91 -92 110 -46
110 8 0 57 -48 109 -105 52 -58 95 -104 97 -102 2 2 -13 60 -34 131 -31 109
-34 128 -22 137 28 17 47 4 135 -96 49 -55 92 -101 95 -103 4 -1 -10 55 -30
125 l-38 128 22 12 c11 6 24 9 27 5 3 -4 25 -83 49 -175z m-1750 69 c-13 -13
-35 7 -25 24 5 8 11 8 21 -1 10 -8 12 -15 4 -23z m1173 -3 c2 -5 7 -20 11 -35
l6 -28 -60 0 c-47 0 -64 -4 -80 -20 -25 -25 -25 -41 -2 -70 16 -19 32 -24 110
-30 77 -7 98 -12 126 -33 69 -53 88 -152 39 -202 -37 -36 -63 -45 -131 -45
-71 0 -102 19 -102 62 0 25 3 29 18 23 9 -3 37 -9 62 -11 87 -10 141 54 88
103 -18 16 -42 22 -105 26 -96 7 -129 22 -168 73 -51 67 -32 155 40 184 25 11
142 13 148 3z m-1285 -21 c2 -7 -3 -12 -12 -12 -9 0 -16 7 -16 16 0 17 22 14
28 -4z m565 -119 c35 -65 22 -70 -16 -7 -21 35 -32 45 -50 42 -28 -4 -34 -45
-12 -87 8 -17 11 -31 5 -31 -11 0 -57 69 -62 94 -4 21 38 45 77 43 25 -2 34
-10 58 -54z m-383 21 c0 -9 -5 -14 -12 -12 -18 6 -21 28 -4 28 9 0 16 -7 16
-16z m89 -89 c44 -80 46 -85 31 -85 -8 0 -90 150 -90 165 0 17 23 -13 59 -80z
m1941 59 c0 -2 -9 0 -20 6 -11 6 -20 13 -20 16 0 2 9 0 20 -6 11 -6 20 -13 20
-16z m-2146 -16 c-3 -5 -12 -4 -20 3 -7 6 -11 15 -8 21 3 5 12 4 20 -3 7 -6
11 -15 8 -21z m311 -29 c36 -71 26 -85 -13 -17 -35 60 -37 68 -22 68 5 0 21
-23 35 -51z m1795 25 c0 -2 -9 0 -20 6 -11 6 -20 13 -20 16 0 2 9 0 20 -6 11
-6 20 -13 20 -16z m-2564 -30 c16 -23 16 -27 1 -41 -14 -15 -18 -15 -41 1 -28
18 -33 35 -14 54 19 19 36 14 54 -14z m539 -36 c1 -38 27 -78 52 -78 7 0 13
-7 13 -15 0 -21 -24 -19 -45 5 -10 11 -26 20 -36 20 -23 0 -34 17 -21 33 7 8
6 18 -4 31 -23 31 -18 48 14 44 24 -3 27 -7 27 -40z m2035 16 c0 -2 -9 0 -20
6 -11 6 -20 13 -20 16 0 2 9 0 20 -6 11 -6 20 -13 20 -16z m115 -22 c-3 -3
-11 0 -18 7 -9 10 -8 11 6 5 10 -3 15 -9 12 -12z m-2045 -7 c0 -8 -7 -15 -15
-15 -8 0 -15 7 -15 15 0 8 7 15 15 15 8 0 15 -7 15 -15z m2020 -21 c0 -2 -13
2 -30 11 -16 9 -30 18 -30 21 0 2 14 -2 30 -11 17 -9 30 -18 30 -21z m-80 0
c0 -2 -9 0 -20 6 -11 6 -20 13 -20 16 0 2 9 0 20 -6 11 -6 20 -13 20 -16z
m-2225 -17 c-20 -31 -14 -65 16 -88 13 -10 18 -19 11 -19 -17 0 -72 60 -72 79
0 19 29 51 47 51 11 0 11 -4 -2 -23z m100 -27 c8 -16 15 -34 15 -41 0 -16 -31
-38 -52 -39 -16 0 -16 2 2 20 11 11 20 28 20 38 0 11 -9 27 -20 37 -11 10 -20
22 -20 27 0 17 40 -13 55 -42z m2235 30 c0 -5 -2 -10 -4 -10 -3 0 -8 5 -11 10
-3 6 -1 10 4 10 6 0 11 -4 11 -10z m70 -35 c7 -8 8 -15 2 -15 -5 0 -15 7 -22
15 -7 8 -8 15 -2 15 5 0 15 -7 22 -15z m105 -15 c3 -5 2 -10 -4 -10 -5 0 -13
5 -16 10 -3 6 -2 10 4 10 5 0 13 -4 16 -10z m-2675 -25 c8 -14 29 -35 49 -47
19 -12 29 -24 22 -26 -7 -2 -20 3 -30 12 -31 28 -71 13 -71 -26 0 -42 -41 -1
-54 54 -5 22 -1 29 21 41 40 21 48 20 63 -8z m2630 -1 c0 -2 -9 0 -20 6 -11 6
-20 13 -20 16 0 2 9 0 20 -6 11 -6 20 -13 20 -16z m-2115 -14 c11 -17 -5 -32
-21 -19 -7 6 -11 15 -8 20 7 12 21 11 29 -1z m-115 -56 c0 -16 -16 -19 -25 -4
-8 13 4 32 16 25 5 -4 9 -13 9 -21z m2520 6 c0 -5 -2 -10 -4 -10 -3 0 -8 5
-11 10 -3 6 -1 10 4 10 6 0 11 -4 11 -10z m-275 -21 c11 -17 0 -20 -21 -4 -17
13 -17 14 -2 15 9 0 20 -5 23 -11z m205 -9 c0 -5 -4 -10 -10 -10 -5 0 -10 5
-10 10 0 6 5 10 10 10 6 0 10 -4 10 -10z m205 -40 c3 -5 1 -10 -4 -10 -6 0
-11 5 -11 10 0 6 2 10 4 10 3 0 8 -4 11 -10z m-2474 -25 c1 -17 -18 -17 -25 0
-4 11 -1 15 10 13 8 -2 15 -7 15 -13z m-111 -40 c0 -8 -7 -15 -15 -15 -8 0
-15 7 -15 15 0 8 7 15 15 15 8 0 15 -7 15 -15z m1994 -18 c7 -19 6 -31 -2 -39
-16 -16 -52 17 -52 49 0 35 41 28 54 -10z m446 7 c0 -8 -5 -12 -10 -9 -6 4 -8
11 -5 16 9 14 15 11 15 -7z m-182 -13 c3 -8 -1 -12 -9 -9 -7 2 -15 10 -17 17
-3 8 1 12 9 9 7 -2 15 -10 17 -17z m-1580 -3 c7 -7 12 -22 12 -35 0 -18 -6
-23 -25 -23 -26 0 -50 32 -41 56 7 17 38 18 54 2z m-494 -63 c3 -9 0 -15 -9
-15 -16 0 -27 14 -18 24 10 10 21 7 27 -9z m-114 -51 c0 -16 -16 -19 -25 -4
-8 13 4 32 16 25 5 -4 9 -13 9 -21z m2258 -3 c3 -8 -1 -12 -9 -9 -7 2 -15 10
-17 17 -3 8 1 12 9 9 7 -2 15 -10 17 -17z m-78 -41 c0 -5 -4 -10 -9 -10 -6 0
-13 5 -16 10 -3 6 1 10 9 10 9 0 16 -4 16 -10z"/>
<path d="M1380 3715 c0 -28 41 -61 65 -51 23 8 18 32 -11 55 -36 28 -54 27
-54 -4z"/>
<path d="M1226 3681 c-8 -13 21 -34 39 -27 25 9 18 36 -9 36 -14 0 -27 -4 -30
-9z"/>
<path d="M853 3658 c2 -7 14 -13 27 -13 13 0 25 6 28 13 2 8 -7 12 -28 12 -21
0 -30 -4 -27 -12z"/>
<path d="M2402 3513 c2 -12 12 -18 28 -18 36 0 33 29 -3 33 -23 3 -28 0 -25
-15z"/>
<path d="M2151 3511 c-19 -12 -5 -31 23 -31 29 0 39 10 25 27 -13 15 -28 16
-48 4z"/>
<path d="M3095 3320 c-11 -17 5 -30 36 -30 33 0 38 14 10 30 -25 13 -38 13
-46 0z"/>
<path d="M2920 3285 c0 -34 44 -77 73 -73 31 4 32 30 2 67 -34 40 -75 43 -75
6z"/>
<path d="M1595 3183 c20 -47 18 -46 54 -38 40 8 46 20 28 49 -11 17 -26 23
-56 24 l-41 2 15 -37z"/>
<path d="M1812 3188 c-21 -21 -13 -28 28 -28 46 0 52 11 15 28 -31 15 -28 15
-43 0z"/>
<path d="M820 3132 c0 -33 27 -62 58 -62 31 0 27 21 -11 58 -40 39 -47 40 -47
4z"/>
<path d="M515 3150 c-4 -6 1 -22 10 -36 14 -21 21 -24 48 -18 41 8 47 12 47
29 0 29 -90 50 -105 25z"/>
<path d="M571 3061 c-12 -8 -13 -14 -3 -35 10 -22 18 -26 51 -26 22 0 44 6 51
15 29 35 -55 74 -99 46z"/>
<path d="M1618 2815 c-73 -41 -63 -149 20 -233 74 -73 192 -96 245 -47 67 62
9 207 -106 266 -52 27 -125 34 -159 14z"/>
<path d="M3890 2707 c0 -27 38 -67 63 -67 25 0 21 42 -6 68 -31 29 -57 29 -57
-1z"/>
<path d="M3520 2709 c0 -6 8 -24 17 -40 12 -21 25 -29 44 -29 44 0 46 42 4 72
-16 12 -65 9 -65 -3z"/>
<path d="M4036 2245 c-76 -21 -85 -48 -32 -101 41 -41 77 -44 111 -9 29 28 30
43 11 90 -16 39 -19 39 -90 20z m48 -61 c16 -6 23 -44 8 -44 -12 0 -32 23 -32
37 0 15 2 15 24 7z"/>
<path d="M3177 2054 c-32 -7 -67 -18 -77 -24 -29 -15 -26 -62 6 -93 62 -62
164 -37 164 40 0 28 -24 95 -33 92 -1 0 -28 -7 -60 -15z"/>
<path d="M3080 1836 c0 -2 8 -10 18 -17 15 -13 16 -12 3 4 -13 16 -21 21 -21
13z"/>
<path d="M3035 1680 c-3 -5 1 -10 10 -10 9 0 13 5 10 10 -3 6 -8 10 -10 10 -2
0 -7 -4 -10 -10z"/>
<path d="M2940 1480 c-12 -8 -10 -10 8 -10 14 0 21 -4 16 -11 -3 -6 -15 -9
-25 -6 -46 12 -8 -94 46 -129 20 -13 33 -15 52 -8 58 20 55 74 -6 136 -39 38
-63 46 -91 28z"/>
<path d="M4833 2040 c-30 -12 -29 -31 2 -85 37 -63 49 -70 85 -55 43 18 54 43
36 79 -18 35 -62 71 -85 70 -9 0 -26 -4 -38 -9z"/>
<path d="M4233 1878 c-18 -6 -33 -18 -33 -26 0 -23 73 -142 87 -142 22 0 82
33 88 48 9 25 -31 99 -64 116 -34 18 -34 18 -78 4z"/>
<path d="M5137 1483 c-13 -12 -7 -44 8 -49 24 -10 47 14 34 37 -10 19 -30 25
-42 12z"/>
<path d="M1270 1521 c-22 -43 -4 -98 41 -122 17 -9 24 -7 36 11 11 16 22 20
39 16 12 -3 25 -2 29 4 9 15 -21 76 -46 94 -33 23 -86 21 -99 -3z"/>
<path d="M1641 1236 c-56 -20 -59 -35 -18 -109 20 -35 43 -67 50 -70 7 -3 24
1 38 9 13 7 31 13 40 14 8 0 26 11 38 24 18 19 21 31 16 54 -8 37 -47 82 -72
83 -10 0 -27 2 -38 4 -11 2 -35 -2 -54 -9z"/>
<path d="M5182 850 l-32 -20 35 -70 c19 -38 38 -70 41 -70 2 0 23 9 44 20 l40
20 -35 70 c-19 39 -41 70 -48 70 -6 0 -27 -9 -45 -20z"/>
</g>
</svg>
